HIERARCHY
ROOT hip
{
  OFFSET 76.5323 59.3615 165.373
  CHANNELS 6 Xposition Yposition Zposition Zrotation Xrotation Yrotation
  JOINT abdomen
  {
    OFFSET 0 20.6881 -0.73152
    CHANNELS 3 Zrotation Xrotation Yrotation
    JOINT chest
    {
      OFFSET 0 11.7043 -0.48768
      CHANNELS 3 Zrotation Xrotation Yrotation
      JOINT neck
      {
        OFFSET 0 22.1894 -2.19456
        CHANNELS 3 Zrotation Xrotation Yrotation
        JOINT head
        {
          OFFSET -0.24384 7.07133 1.2192
          CHANNELS 3 Zrotation Xrotation Yrotation
          JOINT leftEye
          {
            OFFSET 4.14528 8.04674 8.04672
            CHANNELS 3 Zrotation Xrotation Yrotation
            End Site
            {
              OFFSET 1 0 0
            }
          }
          JOINT rightEye
          {
            OFFSET -3.6576 8.04674 8.04672
            CHANNELS 3 Zrotation Xrotation Yrotation
            End Site
            {
              OFFSET 1 0 0
            }
          }
        }
      }
      JOINT rCollar
      {
        OFFSET -2.68224 19.2634 -4.8768
        CHANNELS 3 Zrotation Xrotation Yrotation
        JOINT rShldr
        {
          OFFSET -8.77824 -1.95073 1.46304
          CHANNELS 3 Zrotation Xrotation Yrotation
          JOINT rForeArm
          {
            OFFSET -28.1742 -1.7115 0.48768
            CHANNELS 3 Zrotation Xrotation Yrotation
            JOINT rHand
            {
              OFFSET -22.5879 0.773209 7.07136
              CHANNELS 3 Zrotation Xrotation Yrotation
              JOINT rThumb1
              {
                OFFSET -1.2192 -0.487915 3.41376
                CHANNELS 3 Zrotation Xrotation Yrotation
                JOINT rThumb2
                {
                  OFFSET -3.37035 -0.52449 3.41376
                  CHANNELS 3 Zrotation Xrotation Yrotation
                  End Site
                  {
                    OFFSET -1.78271 -1.18214 1.43049
                  }
                }
              }
              JOINT rIndex1
              {
                OFFSET -7.75947 0.938293 5.60832
                CHANNELS 3 Zrotation Xrotation Yrotation
                JOINT rIndex2
                {
                  OFFSET -2.54057 -0.884171 1.56538
                  CHANNELS 3 Zrotation Xrotation Yrotation
                  End Site
                  {
                    OFFSET -1.62519 -0.234802 1.16502
                  }
                }
              }
              JOINT rMid1
              {
                OFFSET -8.24714 1.18213 3.41376
                CHANNELS 3 Zrotation Xrotation Yrotation
                JOINT rMid2
                {
                  OFFSET -3.10165 -0.590103 1.0647
                  CHANNELS 3 Zrotation Xrotation Yrotation
                  End Site
                  {
                    OFFSET -2.48547 -0.328903 0.83742
                  }
                }
              }
              JOINT rRing1
              {
                OFFSET -8.82822 0.546677 1.51678
                CHANNELS 3 Zrotation Xrotation Yrotation
                JOINT rRing2
                {
                  OFFSET -2.60934 -0.819778 -0.0198488
                  CHANNELS 3 Zrotation Xrotation Yrotation
                  End Site
                  {
                    OFFSET -2.33842 -0.294052 0.168128
                  }
                }
              }
              JOINT rPinky1
              {
                OFFSET -8.27202 -0.0477905 -0.4584
                CHANNELS 3 Zrotation Xrotation Yrotation
                JOINT rPinky2
                {
                  OFFSET -1.82734 -0.647385 -0.700984
                  CHANNELS 3 Zrotation Xrotation Yrotation
                  End Site
                  {
                    OFFSET -1.69225 -0.51767 -0.607171
                  }
                }
              }
            }
          }
        }
      }
      JOINT lCollar
      {
        OFFSET 2.68224 19.2634 -4.8768
        CHANNELS 3 Zrotation Xrotation Yrotation
        JOINT lShldr
        {
          OFFSET 8.77824 -1.95073 1.46304
          CHANNELS 3 Zrotation Xrotation Yrotation
          JOINT lForeArm
          {
            OFFSET 28.1742 -1.7115 0.48768
            CHANNELS 3 Zrotation Xrotation Yrotation
            JOINT lHand
            {
              OFFSET 22.5879 0.773209 7.07136
              CHANNELS 3 Zrotation Xrotation Yrotation
              JOINT lThumb1
              {
                OFFSET 1.2192 -0.487915 3.41376
                CHANNELS 3 Zrotation Xrotation Yrotation
                JOINT lThumb2
                {
                  OFFSET 3.37035 -0.52449 3.41376
                  CHANNELS 3 Zrotation Xrotation Yrotation
                  End Site
                  {
                    OFFSET 1.78271 -1.18214 1.43049
                  }
                }
              }
              JOINT lIndex1
              {
                OFFSET 7.75947 0.938293 5.60832
                CHANNELS 3 Zrotation Xrotation Yrotation
                JOINT lIndex2
                {
                  OFFSET 2.54057 -0.884171 1.56538
                  CHANNELS 3 Zrotation Xrotation Yrotation
                  End Site
                  {
                    OFFSET 1.62519 -0.234802 1.16502
                  }
                }
              }
              JOINT lMid1
              {
                OFFSET 8.24714 1.18213 3.41376
                CHANNELS 3 Zrotation Xrotation Yrotation
                JOINT lMid2
                {
                  OFFSET 3.10165 -0.590103 1.0647
                  CHANNELS 3 Zrotation Xrotation Yrotation
                  End Site
                  {
                    OFFSET 2.48547 -0.328903 0.83742
                  }
                }
              }
              JOINT lRing1
              {
                OFFSET 8.82822 0.546677 1.51678
                CHANNELS 3 Zrotation Xrotation Yrotation
                JOINT lRing2
                {
                  OFFSET 2.60934 -0.819778 -0.0198488
                  CHANNELS 3 Zrotation Xrotation Yrotation
                  End Site
                  {
                    OFFSET 2.33842 -0.294052 0.168128
                  }
                }
              }
              JOINT lPinky1
              {
                OFFSET 8.27202 -0.0477905 -0.4584
                CHANNELS 3 Zrotation Xrotation Yrotation
                JOINT lPinky2
                {
                  OFFSET 1.82734 -0.647385 -0.700984
                  CHANNELS 3 Zrotation Xrotation Yrotation
                  End Site
                  {
                    OFFSET 1.69225 -0.51767 -0.607171
                  }
                }
              }
            }
          }
        }
      }
    }
  }
  JOINT rButtock
  {
    OFFSET -8.77824 4.35084 1.2192
    CHANNELS 3 Zrotation Xrotation Yrotation
    JOINT rThigh
    {
      OFFSET 0 -1.70687 -2.19456
      CHANNELS 3 Zrotation Xrotation Yrotation
      JOINT rShin
      {
        OFFSET 0 -36.8199 0.73152
        CHANNELS 3 Zrotation Xrotation Yrotation
        JOINT rFoot
        {
          OFFSET 0.73152 -45.1104 -5.12064
          CHANNELS 3 Zrotation Xrotation Yrotation
          End Site
          {
            OFFSET -1.1221 -3.69964 12.103
          }
        }
      }
    }
  }
  JOINT lButtock
  {
    OFFSET 8.77824 4.35084 1.2192
    CHANNELS 3 Zrotation Xrotation Yrotation
    JOINT lThigh
    {
      OFFSET 0 -1.70687 -2.19456
      CHANNELS 3 Zrotation Xrotation Yrotation
      JOINT lShin
      {
        OFFSET 0 -36.8199 0.73152
        CHANNELS 3 Zrotation Xrotation Yrotation
        JOINT lFoot
        {
          OFFSET -0.73152 -45.1104 -5.12064
          CHANNELS 3 Zrotation Xrotation Yrotation
          End Site
          {
            OFFSET 1.1221 -3.69964 12.103
          }
        }
      }
    }
  }
}
MOTION
Frames:	4
Frame Time:	0.00833333
87.9175 66.2549 53.5677 3.04828 7.05506 -5.52784 -5.41398 9.37714 2.76881 0.545782 -3.61264 0.490622 10.9123 4.62893 16.4551 -35.0389 13.2918 35.1943 -0 0 0 -0 0 0 -9.80689e-014 -8.9054e-014 5.86415e-014 86.1253 32.6657 -8.95109 -23.3819 -17.9852 47.71 -0.0336557 -5.22926 -0.736993 1.04336e-009 -1.57414e-009 -7.35125e-010 1.80849e-009 -2.73196e-009 -1.2679e-009 1.04336e-009 -1.57413e-009 -7.35128e-010 7.73091 5.47488 0.417314 1.04336e-009 -1.57413e-009 -7.35128e-010 2.90554 0.965183 0.102902 1.04336e-009 -1.57413e-009 -7.3512e-010 10.2786 0.731801 0.0259123 1.04335e-009 -1.57413e-009 -7.35106e-010 2.22167 -0.733487 -0.20892 -9.79393e-014 -8.90563e-014 5.85918e-014 -81.2883 20.324 5.668 25.7601 -22.834 -55.7929 0.035254 -5.35155 0.754328 -2.78058e-010 -1.33797e-009 1.29651e-009 -4.87557e-010 -2.32771e-009 2.24186e-009 -2.78065e-010 -1.33797e-009 1.29653e-009 -7.73091 5.47488 -0.417314 -2.78058e-010 -1.33797e-009 1.29651e-009 -2.90554 0.965183 -0.102902 -2.78059e-010 -1.33797e-009 1.29652e-009 -10.2786 0.731801 -0.0259123 -2.78057e-010 -1.33797e-009 1.29651e-009 -2.22167 -0.733487 0.20892 -2.03217e-016 0 -3.88251e-019 -4.74446 -26.5424 -10.9558 -170.776 81.6719 170.231 -1.36693 -27.3372 4.2136 2.03217e-016 0 3.88251e-019 -8.9155 -13.6066 -2.89281 0.102595 14.0767 0.508719 0.863822 -1.737 -5.93856 
87.8411 66.2986 54.132 3.1144 7.05775 -5.39905 -5.42097 9.43916 2.53817 0.592242 -3.54917 0.450633 11.0416 4.60408 16.5373 -35.1204 13.1785 35.2951 -0 0 0 -0 0 0 -4.33625e-014 -9.8882e-014 2.99621e-014 85.922 32.3653 -8.6959 -23.2899 -17.8275 47.4294 -0.0342968 -5.25899 -0.741234 8.1898e-010 -1.51809e-009 -1.03143e-009 1.42296e-009 -2.63733e-009 -1.78085e-009 8.18984e-010 -1.51808e-009 -1.03143e-009 7.73091 5.47488 0.417314 8.18978e-010 -1.51808e-009 -1.03143e-009 2.90554 0.965183 0.102902 8.18981e-010 -1.51808e-009 -1.03142e-009 10.2786 0.731801 0.0259123 8.18969e-010 -1.51808e-009 -1.03141e-009 2.22167 -0.733487 -0.20892 -4.32452e-014 -9.88834e-014 2.99416e-014 -80.8496 20.4423 5.41434 25.7207 -22.7381 -55.6353 0.0334088 -5.20078 0.732961 -6.67442e-010 -2.00458e-009 1.60936e-009 -1.16147e-009 -3.48284e-009 2.78112e-009 -6.67447e-010 -2.00458e-009 1.60936e-009 -7.73091 5.47488 -0.417314 -6.67441e-010 -2.00458e-009 1.60935e-009 -2.90554 0.965183 -0.102902 -6.67442e-010 -2.00458e-009 1.60936e-009 -10.2786 0.731801 -0.0259123 -6.67439e-010 -2.00458e-009 1.60935e-009 -2.22167 -0.733487 0.20892 -2.03217e-016 0 -3.88251e-019 -5.02005 -28.8355 -11.3369 -169.812 82.5398 169.254 -1.47996 -26.7251 3.38603 2.03217e-016 0 3.88251e-019 -8.88808 -12.522 -2.77603 0.0885609 13.0731 0.425428 0.927333 -1.51657 -6.22422 
87.8023 66.3059 54.7275 3.11851 7.09201 -5.23016 -5.34637 9.48501 2.30011 0.60195 -3.40662 0.405957 11.233 4.52179 16.6298 -35.241 13.101 35.4129 -0 0 0 -0 0 0 4.94236e-014 -1.14202e-013 -2.07792e-014 85.6754 32.0353 -8.33911 -23.1648 -17.6148 47.0565 -0.0341154 -5.21717 -0.735348 3.71241e-010 -1.24844e-009 -1.39846e-009 6.51882e-010 -2.17323e-009 -2.41653e-009 3.7125e-010 -1.24844e-009 -1.39846e-009 7.73091 5.47488 0.417314 3.71243e-010 -1.24844e-009 -1.39845e-009 2.90554 0.965183 0.102902 3.71247e-010 -1.24844e-009 -1.39845e-009 10.2786 0.731801 0.0259123 3.71228e-010 -1.24844e-009 -1.39844e-009 2.22167 -0.733487 -0.20892 4.94751e-014 -1.14202e-013 -2.07947e-014 -80.3315 20.5596 5.05177 25.6677 -22.6102 -55.4282 0.0311506 -4.9945 0.703757 -1.21222e-009 -2.80765e-009 1.95122e-009 -2.10366e-009 -4.87331e-009 3.36942e-009 -1.21222e-009 -2.80764e-009 1.95122e-009 -7.73091 5.47488 -0.417314 -1.21222e-009 -2.80765e-009 1.95122e-009 -2.90554 0.965183 -0.102902 -1.21222e-009 -2.80764e-009 1.95122e-009 -10.2786 0.731801 -0.0259123 -1.21222e-009 -2.80765e-009 1.9512e-009 -2.22167 -0.733487 0.20892 -2.03217e-016 0 -3.88251e-019 -5.26729 -31.1532 -11.7655 -168.546 83.4525 167.989 -1.62194 -26.1104 2.39843 2.03217e-016 0 3.88251e-019 -8.80615 -11.5306 -2.72966 0.0778859 12.1749 0.352148 0.984044 -1.37611 -6.47779 
87.8187 66.441 55.4378 3.10012 7.14189 -5.05573 -5.25173 9.52683 2.06098 0.616577 -3.27289 0.35944 11.4195 4.44902 16.7155 -35.3334 13.0418 35.52 -0 0 0 -0 0 0 1.41197e-013 -1.34045e-013 -7.43874e-014 85.4353 31.694 -8.00171 -23.0383 -17.4015 46.6901 -0.0344004 -5.23631 -0.738065 -9.41723e-011 -9.40551e-010 -1.71911e-009 -1.50037e-010 -1.64247e-009 -2.97198e-009 -9.41575e-011 -9.40554e-010 -1.71912e-009 7.73091 5.47488 0.417314 -9.41653e-011 -9.40558e-010 -1.71911e-009 2.90554 0.965183 0.102902 -9.41603e-011 -9.4056e-010 -1.7191e-009 10.2786 0.731801 0.0259123 -9.41848e-011 -9.40553e-010 -1.7191e-009 2.22167 -0.733487 -0.20892 1.4117e-013 -1.34042e-013 -7.4415e-014 -79.8307 20.6524 4.70897 25.6061 -22.4632 -55.1904 0.0277689 -4.70533 0.662827 -1.70648e-009 -3.44454e-009 2.22092e-009 -2.95804e-009 -5.97521e-009 3.83285e-009 -1.70648e-009 -3.44453e-009 2.22092e-009 -7.73091 5.47488 -0.417314 -1.70648e-009 -3.44453e-009 2.22092e-009 -2.90554 0.965183 -0.102902 -1.70648e-009 -3.44452e-009 2.22091e-009 -10.2786 0.731801 -0.0259123 -1.70648e-009 -3.44453e-009 2.2209e-009 -2.22167 -0.733487 0.20892 -2.03217e-016 0 -3.88251e-019 -5.5185 -33.4568 -12.1917 -166.708 84.4404 166.166 -1.78897 -25.4614 1.32477 2.03217e-016 0 3.88251e-019 -8.70319 -10.5866 -2.7067 0.0688069 11.358 0.287213 1.03812 -1.272 -6.68387 
